# xmcd CD database file
#
# Track frame offsets:
#	150
#	19518
#	40688
#	67710
#	98095
#	121125
#	152060
#	184448
#	207073
#	234813
#
# Disc length: 3547 seconds
#
# Revision: 0
# Processed by: cddbd v1.5.1PL0 Copyright (c) Steve Scherf et al.
# Submitted via: CDex 1.51
#
DISCID=6d0dd90a
DTITLE=Various Artist - jazz standards best 10 selected by keystone korner tokyo
DYEAR=1992
DGENRE=Jazz
TTITLE0=someday my prince will come - great jazz trio
TTITLE1=tenderly - barney wilen
TTITLE2=you and the night and the music - bill evans trio
TTITLE3=the old country - nat adderley quintet featuring vincent herring
TTITLE4=lament - tommy flanagan trio
TTITLE5=as time goes by - chris connor with hank jones trio
TTITLE6=yesterdays - mal waldron trio
TTITLE7=autumn in new york - eddie harris quartet
TTITLE8=all of you - freddie hubbard
TTITLE9=caravan - kenny drew trio
EXTD=YEAR: 1992
EXTT0=
EXTT1=
EXTT2=
EXTT3=
EXTT4=
EXTT5=
EXTT6=
EXTT7=
EXTT8=
EXTT9=
PLAYORDER=
